<?xml version="1.0" encoding="utf-8"?>
<svg viewBox="0 0 239 177" xmlns="http://www.w3.org/2000/svg">
  <defs>
    <linearGradient gradientUnits="userSpaceOnUse" x1="546.147" y1="139.742" x2="546.147" y2="253.315" id="gradient-0" gradientTransform="matrix(0.455623, -0.156992, 0.13028, 0.431513, -129.93337, 98.494848)">
      <stop offset="0" style="stop-color: rgb(239, 79, 79);"/>
      <stop offset="1" style="stop-color: rgb(236, 231, 78);"/>
    </linearGradient>
  </defs>
  <path d="M 126.376 0.396 C 126.346 0.396 126.316 0.397 126.285 0.399 C 94.375 2.398 69.378 29.031 69.378 61.032 C 69.378 93.033 94.375 119.666 126.285 121.664 C 126.671 121.69 127.049 121.554 127.33 121.289 C 127.61 121.028 127.769 120.662 127.768 120.28 L 127.768 1.784 C 127.766 1.017 127.143 0.396 126.376 0.396 Z" style="fill: rgba(136, 118, 118, 0.53);"/>
  <path d="M 175.166 101.522 C 174.693 101.522 174.239 101.334 173.904 101 L 132.644 59.744 C 132.308 59.411 132.121 58.958 132.122 58.485 L 132.122 1.784 C 132.12 1.292 132.324 0.822 132.684 0.486 C 133.045 0.147 133.53 -0.027 134.024 0.004 C 166.143 2.016 191.303 28.823 191.303 61.032 C 191.304 75.662 186.058 89.808 176.518 100.902 C 176.194 101.278 175.728 101.502 175.233 101.521 C 175.211 101.522 175.188 101.522 175.166 101.522 Z" style="fill: rgba(133, 127, 127, 0.54);"/>
  <path d="M 133.911 122.063 C 133.455 122.063 133.017 121.889 132.684 121.578 C 132.324 121.243 132.12 120.772 132.122 120.279 L 132.122 69.121 C 132.122 67.749 133.606 66.892 134.794 67.578 C 134.929 67.656 135.053 67.751 135.162 67.861 L 171.168 103.861 C 171.889 104.584 171.859 105.763 171.1 106.448 C 160.849 115.676 147.786 121.176 134.022 122.06 C 133.985 122.062 133.948 122.063 133.911 122.063 Z" style="fill: url(#gradient-0);"/>
  <path d="M 125.644 148.248 L 86.575 148.248 C 84.94 148.248 83.918 146.479 84.736 145.063 C 85.116 144.406 85.816 144.002 86.575 144.002 L 125.644 144.002 C 127.279 144.002 128.3 145.771 127.483 147.187 C 127.103 147.843 126.403 148.248 125.644 148.248 Z" fill="#ccc" style=""/>
  <path d="M 74.897 150.371 C 71.464 150.371 69.32 146.656 71.035 143.683 C 72.751 140.711 77.042 140.711 78.758 143.683 C 79.15 144.361 79.355 145.13 79.355 145.913 C 79.353 148.374 77.359 150.368 74.897 150.371 Z" style="fill: rgb(239, 79, 79);"/>
  <path d="M 125.644 160.987 L 86.575 160.987 C 84.94 160.987 83.918 159.217 84.736 157.802 C 85.116 157.145 85.816 156.74 86.575 156.74 L 125.644 156.74 C 127.279 156.74 128.3 158.509 127.483 159.925 C 127.103 160.582 126.403 160.987 125.644 160.987 Z" fill="#ccc" style=""/>
  <path d="M 74.897 163.109 C 71.464 163.109 69.32 159.394 71.035 156.422 C 72.751 153.449 77.042 153.449 78.758 156.422 C 79.15 157.099 79.355 157.868 79.355 158.651 C 79.353 161.112 77.359 163.107 74.897 163.109 Z" style="fill: rgb(239, 79, 79);"/>
  <path d="M 125.644 173.725 L 86.575 173.725 C 84.94 173.725 83.918 171.956 84.736 170.54 C 85.116 169.883 85.816 169.478 86.575 169.478 L 125.644 169.478 C 127.279 169.478 128.3 171.248 127.483 172.663 C 127.103 173.32 126.403 173.725 125.644 173.725 Z" fill="#ccc" style=""/>
  <path d="M 74.897 175.848 C 71.464 175.848 69.32 172.133 71.035 169.16 C 72.751 166.188 77.042 166.188 78.758 169.16 C 79.15 169.838 79.355 170.607 79.355 171.39 C 79.353 173.85 77.359 175.845 74.897 175.848 Z" style="fill: rgb(239, 79, 79);"/>
  <path d="M 132.505 159.126 L 147.022 159.126 C 147.233 159.126 147.404 159.024 147.404 158.897 L 147.404 105.131 C 147.404 104.955 147.085 104.845 146.831 104.933 C 146.712 104.974 146.639 105.05 146.639 105.131 L 146.639 158.668 L 132.505 158.668 C 132.211 158.668 132.027 158.858 132.173 159.011 C 132.242 159.083 132.369 159.127 132.505 159.126 Z" fill="#3f3d56" style=""/>
  <path d="M 200.828 31.276 L 200.828 31.276 C 196.627 31.614 193.635 27.28 195.444 23.474 C 197.25 19.668 202.5 19.245 204.893 22.713 C 205.438 23.504 205.766 24.424 205.844 25.381 C 206.085 28.394 203.84 31.033 200.828 31.276 Z M 200.759 30.437 L 200.759 30.437 C 204.313 30.15 206.225 26.125 204.2 23.191 C 202.175 20.257 197.733 20.614 196.204 23.835 C 195.855 24.569 195.706 25.382 195.772 26.193 C 195.976 28.742 198.21 30.642 200.759 30.437 Z" fill="#ccc" style=""/>
  <circle cx="547.528" cy="138.744" r="3.368" fill="#ccc" style="" transform="matrix(1, 0, 0, 0.999886, -327.853502, -124.863189)"/>
  <circle cx="581.883" cy="116.785" r="1.769" fill="#ccc" style="" transform="matrix(1, 0, 0, 0.999886, -345.65224, -113.487898)"/>
  <path d="M 175.109 138.998 C 172.786 142.513 167.529 142.196 165.646 138.427 C 163.763 134.658 166.666 130.265 170.872 130.518 C 171.831 130.576 172.759 130.886 173.56 131.415 L 173.56 131.415 C 176.078 133.083 176.771 136.476 175.109 138.998 Z M 166.679 133.428 C 164.713 136.402 166.704 140.389 170.263 140.604 C 173.822 140.819 176.278 137.101 174.685 133.912 C 174.321 133.185 173.773 132.566 173.095 132.118 L 173.095 132.118 C 170.961 130.711 168.091 131.297 166.679 133.428 Z" fill="#ccc" style=""/>
  <circle cx="463.918" cy="433.211" r="3.368" fill="#ccc" style="" transform="matrix(1, 0, 0, 0.999886, -284.536575, -277.404128)"/>
  <circle cx="488.154" cy="469.021" r="1.769" fill="#ccc" style="" transform="matrix(1, 0, 0, 0.999886, -297.092819, -295.954544)"/>
  <path d="M 39.2 47.081 C 37.324 43.309 40.238 38.921 44.442 39.184 C 48.648 39.446 50.992 44.162 48.662 47.672 C 48.13 48.473 47.398 49.119 46.537 49.547 L 46.537 49.547 C 43.831 50.888 40.547 49.785 39.2 47.081 Z M 48.249 42.585 C 46.663 39.393 42.214 39.114 40.243 42.085 C 38.272 45.055 40.255 49.045 43.813 49.268 C 44.624 49.318 45.435 49.155 46.163 48.793 L 46.163 48.793 C 48.451 47.653 49.385 44.876 48.249 42.585 Z" fill="#ccc" style=""/>
  <circle cx="136.122" cy="201.992" r="3.368" fill="#ccc" style="" transform="matrix(1, 0, 0, 0.999886, -114.711027, -157.62716)"/>
  <circle cx="95.364" cy="200.885" r="1.769" fill="#ccc" style="" transform="matrix(1, 0, 0, 0.999886, -93.595006, -157.053704)"/>
</svg>